HIERARCHY
ROOT Hips
{
 OFFSET 0.000000 0.000000 0.000000
 CHANNELS 6 Xposition Yposition Zposition Yrotation Xrotation Zrotation
 JOINT Chest
 {
  OFFSET 0.000000 10.383400 0.001500
  CHANNELS 3 Yrotation Xrotation Zrotation
  JOINT Chest2
  {
   OFFSET 0.000000 10.418200 -0.003100
   CHANNELS 3 Yrotation Xrotation Zrotation
   JOINT Chest3
   {
    OFFSET 0.000000 10.375100 0.000000
    CHANNELS 3 Yrotation Xrotation Zrotation
    JOINT Chest4
    {
     OFFSET 0.000000 10.364600 0.000000
     CHANNELS 3 Yrotation Xrotation Zrotation
     JOINT Neck
     {
      OFFSET 0.000000 15.642200 0.000000
      CHANNELS 3 Yrotation Xrotation Zrotation
      JOINT Head
      {
       OFFSET 0.000000 9.697300 -0.006500
       CHANNELS 3 Yrotation Xrotation Zrotation
       End Site
       {
        OFFSET 0.000000 18.492200 -0.003400
       }
      }
     }
     JOINT RightCollar
     {
      OFFSET -3.166800 10.349300 0.000000
      CHANNELS 3 Yrotation Xrotation Zrotation
      JOINT RightShoulder
      {
       OFFSET -14.729700 0.000000 0.000000
       CHANNELS 3 Yrotation Xrotation Zrotation
       JOINT RightElbow
       {
        OFFSET 0.000000 -32.224300 0.000000
        CHANNELS 3 Yrotation Xrotation Zrotation
        JOINT RightWrist
        {
         OFFSET 0.000000 -26.084100 0.000000
         CHANNELS 3 Yrotation Xrotation Zrotation
         End Site
         {
          OFFSET 0.000000 -19.319400 0.000000
         }
        }
       }
      }
     }
     JOINT LeftCollar
     {
      OFFSET 3.166800 10.349300 0.000000
      CHANNELS 3 Yrotation Xrotation Zrotation
      JOINT LeftShoulder
      {
       OFFSET 14.729700 0.000000 0.000000
       CHANNELS 3 Yrotation Xrotation Zrotation
       JOINT LeftElbow
       {
        OFFSET 0.000000 -32.224300 0.000000
        CHANNELS 3 Yrotation Xrotation Zrotation
        JOINT LeftWrist
        {
         OFFSET 0.000000 -26.084100 0.000000
         CHANNELS 3 Yrotation Xrotation Zrotation
         End Site
         {
          OFFSET 0.000000 -19.319400 0.000000
         }
        }
       }
      }
     }
    }
   }
  }
 }
 JOINT RightHip
 {
  OFFSET -8.428900 -0.007500 -0.000800
  CHANNELS 3 Yrotation Xrotation Zrotation
  JOINT RightKnee
  {
   OFFSET 0.000000 -43.834600 0.000700
   CHANNELS 3 Yrotation Xrotation Zrotation
   JOINT RightAnkle
   {
    OFFSET 0.000000 -42.757000 0.001200
    CHANNELS 3 Yrotation Xrotation Zrotation
    JOINT RightToe
    {
     OFFSET 0.000000 -6.946900 15.649300
     CHANNELS 3 Yrotation Xrotation Zrotation
     End Site
     {
      OFFSET 0.000000 -1.580800 6.825800
     }
    }
   }
  }
 }
 JOINT LeftHip
 {
  OFFSET 8.428900 -0.007500 -0.000800
  CHANNELS 3 Yrotation Xrotation Zrotation
  JOINT LeftKnee
  {
   OFFSET 0.000000 -43.834600 0.000700
   CHANNELS 3 Yrotation Xrotation Zrotation
   JOINT LeftAnkle
   {
    OFFSET 0.000000 -42.757000 0.001200
    CHANNELS 3 Yrotation Xrotation Zrotation
    JOINT LeftToe
    {
     OFFSET 0.000000 -6.946900 15.649300
     CHANNELS 3 Yrotation Xrotation Zrotation
     End Site
     {
      OFFSET 0.000000 -1.580800 6.825800
     }
    }
   }
  }
 }
}
MOTION
Frames: 8
Frame Time: 0.008333
0.000000 93.354300 0.000000 0.000000 -5.767877 0.000000 0.000000 11.653817 0.000000 0.000000 -5.885947 0.000000 0.000000 -0.000000 0.000000 0.000000 -0.000000 0.000000 0.000000 12.528835 0.000000 0.000000 0.711642 0.000000 0.000000 -0.000000 0.000000 0.000000 0.000000 -90.000000 0.000000 -2.309062 0.000000 0.000000 2.309062 0.000000 0.000000 -0.000000 0.000000 0.000000 -0.000000 90.000000 0.000000 -2.309062 0.000000 0.000000 2.309062 0.000000 0.000000 8.520406 0.000000 0.000000 1.905762 0.000000 -0.000000 -4.658285 0.000000 0.000000 -0.000000 0.000000 0.000000 8.520406 0.000000 0.000000 1.905762 0.000000 -0.000000 -4.658285 0.000000 0.000000 -0.000000 0.000000
0.011659 151.173300 -8.712401 177.492158 -15.951455 -3.129449 -3.299662 13.909984 1.332532 -0.299919 1.213585 0.146623 -0.505680 2.049450 0.243601 -2.979214 12.485457 1.215825 -1.600940 13.970061 0.845693 -1.863388 -11.055419 1.243444 5.764365 -2.558182 -1.514334 18.619976 -21.574690 -10.456583 49.600051 -36.350482 -20.405116 17.816484 -2.833019 -23.706026 -4.222273 -1.693697 -0.269523 -1.283632 -20.825006 4.332125 -18.499924 -46.071251 0.068774 -12.689488 1.263627 17.797298 1.220723 -51.985654 8.433726 -100.138483 83.864694 -96.367032 -2.143903 -20.446038 1.080215 -0.006819 0.021556 0.003210 2.350415 -52.721529 -7.129285 99.343329 80.588048 105.070916 8.386051 -20.600265 -9.373483 -0.015384 -0.009979 -0.004556
-0.244603 143.258879 -7.721252 177.494044 -15.949993 -3.123666 -3.303308 13.909208 1.326539 -0.299767 1.216990 0.148434 -0.506275 2.050605 0.244247 -2.981520 12.486351 1.217813 -1.597306 13.969302 0.842034 -1.859814 -11.053166 1.239817 5.771489 -2.550806 -1.505935 18.617553 -21.577407 -10.468828 49.587681 -36.372562 -20.400069 17.802557 -2.833250 -23.704643 -4.216650 -1.698564 -0.274572 -1.288419 -20.813880 4.343148 -18.492842 -46.086943 0.062018 -12.689290 1.261960 17.798488 1.230238 -51.984487 8.422754 -100.095306 83.868644 -96.325836 -2.150768 -20.440364 1.074835 -0.007222 0.008545 -0.003206 2.349987 -52.725756 -7.132137 99.355943 80.587744 105.084112 8.386729 -20.604787 -9.380591 0.002702 -0.008415 0.001199
-0.455399 136.741081 -6.904746 177.499339 -15.948273 -3.121771 -3.307995 13.911775 1.324998 -0.301570 1.217123 0.149544 -0.506446 2.052014 0.244878 -2.981143 12.490143 1.221196 -1.595670 13.965040 0.837729 -1.834711 -11.037573 1.233737 5.772468 -2.556601 -1.508199 18.612885 -21.573727 -10.467280 49.570284 -36.401752 -20.391925 17.782785 -2.831441 -23.719515 -4.213489 -1.706140 -0.281131 -1.292097 -20.811379 4.346581 -18.490354 -46.094332 0.061107 -12.688004 1.261554 17.799574 1.236639 -51.987079 8.420511 -100.075522 83.863692 -96.305040 -2.161537 -20.433010 1.070624 -0.001956 0.001454 -0.000868 2.346926 -52.728647 -7.136668 99.371992 80.594447 105.104641 8.388999 -20.613626 -9.383625 0.001632 -0.002607 0.000724
-0.607648 132.034067 -6.315721 177.494443 -15.952917 -3.118402 -3.303938 13.918597 1.325293 -0.301958 1.216868 0.148202 -0.506403 2.052834 0.245226 -2.979813 12.502418 1.227964 -1.590745 13.957440 0.833121 -1.834379 -11.042285 1.231250 5.772597 -2.568077 -1.512646 18.601642 -21.566032 -10.456986 49.566448 -36.421359 -20.396278 17.791872 -2.834690 -23.732829 -4.210402 -1.697874 -0.287407 -1.295179 -20.829910 4.348820 -18.484137 -46.097633 0.057665 -12.690562 1.257713 17.799944 1.254629 -51.984720 8.417910 -100.095264 83.868858 -96.328083 -2.179037 -20.428992 1.078261 -0.001608 -0.003387 -0.000714 2.353458 -52.724971 -7.139903 99.387343 80.594873 105.120757 8.400258 -20.622993 -9.388024 0.001905 0.000429 0.000846
-0.703925 129.061192 -5.943289 177.492267 -15.955435 -3.116741 -3.304496 13.925603 1.325331 -0.300663 1.215268 0.147574 -0.506294 2.053898 0.245727 -2.978972 12.515669 1.233012 -1.582432 13.950256 0.831226 -1.835451 -11.050098 1.228159 5.778357 -2.574489 -1.511870 18.592164 -21.564493 -10.453929 49.562511 -36.436237 -20.401453 17.796375 -2.840095 -23.749008 -4.209752 -1.700611 -0.289792 -1.293733 -20.832209 4.347613 -18.489712 -46.119753 0.063817 -12.692523 1.270198 17.795423 1.265518 -51.982737 8.414993 -100.100843 83.869940 -96.334653 -2.185820 -20.428711 1.081396 -0.001766 -0.005374 -0.000784 2.358101 -52.727245 -7.145910 99.408974 80.591189 105.147015 8.405691 -20.622774 -9.392856 0.000899 0.000985 0.000399
-0.756979 127.426123 -5.737970 177.492908 -15.956547 -3.116920 -3.308460 13.933279 1.326775 -0.300673 1.216672 0.148045 -0.505868 2.067684 0.249540 -2.975588 12.512360 1.232258 -1.577327 13.941848 0.830616 -1.826713 -11.057539 1.223453 5.782270 -2.583024 -1.512825 18.580648 -21.555854 -10.447471 49.575023 -36.447163 -20.421379 17.791861 -2.846707 -23.761442 -4.210341 -1.711149 -0.291761 -1.288988 -20.806431 4.341381 -18.508505 -46.154408 0.087184 -12.684960 1.276788 17.795935 1.266656 -51.981045 8.416098 -100.110270 83.872827 -96.347153 -2.187672 -20.431210 1.078563 -0.002433 -0.005628 -0.001080 2.359936 -52.734098 -7.145798 99.454499 80.589823 105.195620 8.397622 -20.620389 -9.391187 0.000415 -0.001209 0.000184
-0.782562 126.647658 -5.640048 177.493241 -15.959315 -3.116631 -3.307989 13.943174 1.328995 -0.301027 1.218517 0.148294 -0.504095 2.069608 0.248703 -2.973056 12.520253 1.233384 -1.574800 13.936481 0.832779 -1.820929 -11.064363 1.220296 5.790798 -2.589000 -1.509976 18.564637 -21.549592 -10.445354 49.586963 -36.459279 -20.441299 17.784555 -2.858511 -23.781062 -4.213253 -1.720369 -0.291532 -1.289574 -20.807318 4.338347 -18.518673 -46.164327 0.098913 -12.670241 1.295081 17.808223 1.265933 -51.977506 8.419170 -100.119973 83.873753 -96.360029 -2.193811 -20.436715 1.076292 -0.003579 -0.005524 -0.001589 2.360584 -52.733754 -7.145821 99.461698 80.586510 105.206407 8.390967 -20.621027 -9.393713 0.001726 -0.000262 0.000766
